<mxfile host="app.diagrams.net" agent="Mozilla/5.0 (Windows NT 10.0; Win64; x64) AppleWebKit/537.36 (KHTML, like Gecko) Chrome/128.0.0.0 Safari/537.36 Edg/128.0.0.0" version="24.7.7">
  <diagram name="페이지-1" id="FG95Bt2lxNNTkeeuYlwk">
    <mxGraphModel grid="1" page="1" gridSize="10" guides="1" tooltips="1" connect="1" arrows="1" fold="1" pageScale="1" pageWidth="827" pageHeight="1169" math="0" shadow="0">
      <root>
        <mxCell id="0" />
        <mxCell id="1" parent="0" />
        <mxCell id="UjApQZzeP2db0tiU_oVB-3" value="" style="edgeStyle=orthogonalEdgeStyle;rounded=0;orthogonalLoop=1;jettySize=auto;html=1;" edge="1" parent="1" source="UjApQZzeP2db0tiU_oVB-1" target="UjApQZzeP2db0tiU_oVB-2">
          <mxGeometry relative="1" as="geometry" />
        </mxCell>
        <mxCell id="UjApQZzeP2db0tiU_oVB-1" value="시작" style="rounded=0;whiteSpace=wrap;html=1;" vertex="1" parent="1">
          <mxGeometry x="340" y="360" width="120" height="60" as="geometry" />
        </mxCell>
        <mxCell id="UjApQZzeP2db0tiU_oVB-5" value="" style="edgeStyle=orthogonalEdgeStyle;rounded=0;orthogonalLoop=1;jettySize=auto;html=1;" edge="1" parent="1" source="UjApQZzeP2db0tiU_oVB-2" target="UjApQZzeP2db0tiU_oVB-4">
          <mxGeometry relative="1" as="geometry" />
        </mxCell>
        <mxCell id="UjApQZzeP2db0tiU_oVB-10" value="" style="edgeStyle=orthogonalEdgeStyle;rounded=0;orthogonalLoop=1;jettySize=auto;html=1;" edge="1" parent="1" source="UjApQZzeP2db0tiU_oVB-2" target="UjApQZzeP2db0tiU_oVB-9">
          <mxGeometry relative="1" as="geometry" />
        </mxCell>
        <mxCell id="UjApQZzeP2db0tiU_oVB-2" value="메뉴 버튼을 누름" style="rounded=0;whiteSpace=wrap;html=1;" vertex="1" parent="1">
          <mxGeometry x="340" y="500" width="120" height="60" as="geometry" />
        </mxCell>
        <mxCell id="UjApQZzeP2db0tiU_oVB-7" value="" style="edgeStyle=orthogonalEdgeStyle;rounded=0;orthogonalLoop=1;jettySize=auto;html=1;" edge="1" parent="1" source="UjApQZzeP2db0tiU_oVB-4" target="UjApQZzeP2db0tiU_oVB-6">
          <mxGeometry relative="1" as="geometry" />
        </mxCell>
        <mxCell id="UjApQZzeP2db0tiU_oVB-4" value="버튼이 지정한&amp;nbsp;&lt;br&gt;section으로 이동" style="rounded=0;whiteSpace=wrap;html=1;" vertex="1" parent="1">
          <mxGeometry x="340" y="640" width="120" height="60" as="geometry" />
        </mxCell>
        <mxCell id="UjApQZzeP2db0tiU_oVB-12" style="edgeStyle=orthogonalEdgeStyle;rounded=0;orthogonalLoop=1;jettySize=auto;html=1;exitX=0;exitY=0.5;exitDx=0;exitDy=0;entryX=0;entryY=0.5;entryDx=0;entryDy=0;" edge="1" parent="1" source="UjApQZzeP2db0tiU_oVB-6" target="UjApQZzeP2db0tiU_oVB-1">
          <mxGeometry relative="1" as="geometry">
            <Array as="points">
              <mxPoint x="270" y="810" />
              <mxPoint x="270" y="390" />
            </Array>
          </mxGeometry>
        </mxCell>
        <mxCell id="UjApQZzeP2db0tiU_oVB-6" value="종료" style="rounded=0;whiteSpace=wrap;html=1;" vertex="1" parent="1">
          <mxGeometry x="340" y="780" width="120" height="60" as="geometry" />
        </mxCell>
        <mxCell id="UjApQZzeP2db0tiU_oVB-9" value="버튼을 누르지 않음" style="rounded=0;whiteSpace=wrap;html=1;" vertex="1" parent="1">
          <mxGeometry x="470" y="570" width="120" height="60" as="geometry" />
        </mxCell>
        <mxCell id="UjApQZzeP2db0tiU_oVB-13" value="&lt;h1 style=&quot;margin-top: 0px;&quot;&gt;smooth scroll&lt;/h1&gt;&lt;p&gt;메뉴의 버튼을 클릭하면&lt;/p&gt;&lt;p&gt;지정한 섹션(영역)으로 이동한다&lt;/p&gt;" style="text;html=1;whiteSpace=wrap;overflow=hidden;rounded=0;" vertex="1" parent="1">
          <mxGeometry x="80" y="160" width="320" height="120" as="geometry" />
        </mxCell>
        <mxCell id="UjApQZzeP2db0tiU_oVB-14" value="&lt;h1 style=&quot;margin-top: 0px;&quot;&gt;&lt;font style=&quot;font-size: 16px;&quot;&gt;https://codepen.io/Studio-kei/pen/QWXmpMN&lt;/font&gt;&lt;br&gt;&lt;/h1&gt;" style="text;html=1;whiteSpace=wrap;overflow=hidden;rounded=0;" vertex="1" parent="1">
          <mxGeometry x="80" y="960" width="600" height="40" as="geometry" />
        </mxCell>
      </root>
    </mxGraphModel>
  </diagram>
</mxfile>
